<svg width="43" height="36" viewBox="0 0 43 36" fill="none" xmlns="http://www.w3.org/2000/svg">
<g clip-path="url(#clip0_49_12)">
<path d="M9.77276 35.0304V17.3716L4.62032 12.3614L0 9.58105V31.9141C0 33.6384 1.31436 35.0304 2.93189 35.0304H9.77276V35.0304Z" fill="#4285F4"/>
<path d="M33.2272 35.0305H40.0681C41.6905 35.0305 43 33.6333 43 31.9142V9.5813L37.7668 12.7658L33.2272 17.3716V35.0305V35.0305Z" fill="#34A853"/>
<path d="M9.77276 17.3718L9.07166 10.472L9.77276 3.86816L21.5 13.2169L33.2272 3.86816L34.0117 10.1154L33.2272 17.3718L21.5 26.7206L9.77276 17.3718Z" fill="#EA4335"/>
<path d="M33.2272 3.86793V17.3716L43 9.58103V5.426C43 1.57234 38.8612 -0.62453 35.9638 1.6866L33.2272 3.86793Z" fill="#FBBC04"/>
<path d="M0 9.58087L4.49468 13.1641L9.77276 17.3714V3.86777L7.03621 1.68644C4.13371 -0.624872 0 1.57217 0 5.42566V9.58069V9.58087Z" fill="#C5221F"/>
</g>
<defs>
<clipPath id="clip0_49_12">
<rect width="43" height="34.4571" fill="white" transform="translate(0 0.74292)"/>
</clipPath>
</defs>
</svg>
