<svg width="40" height="41" viewBox="0 0 40 41" fill="none" xmlns="http://www.w3.org/2000/svg">
<g clip-path="url(#clip0_50_41)">
<path d="M28.75 0.157227H11.25C9.1875 0.157227 7.5 1.85316 7.5 3.92597V36.5885C7.5 38.6613 9.1875 40.3572 11.25 40.3572H28.75C30.8125 40.3572 32.5 38.6613 32.5 36.5885V3.92597C32.5 1.85316 30.8125 0.157227 28.75 0.157227ZM15 2.0416H25V3.29785H15V2.0416ZM20 37.8447C19.337 37.8447 18.7011 37.58 18.2322 37.1088C17.7634 36.6376 17.5 35.9986 17.5 35.3322C17.5 34.6659 17.7634 34.0268 18.2322 33.5556C18.7011 33.0844 19.337 32.8197 20 32.8197C20.663 32.8197 21.2989 33.0844 21.7678 33.5556C22.2366 34.0268 22.5 34.6659 22.5 35.3322C22.5 35.9986 22.2366 36.6376 21.7678 37.1088C21.2989 37.58 20.663 37.8447 20 37.8447V37.8447ZM30 30.3072H10V5.18222H30V30.3072Z" fill="#009DE0"/>
</g>
<defs>
<clipPath id="clip0_50_41">
<rect width="40" height="40.2" fill="white" transform="translate(0 0.157227)"/>
</clipPath>
</defs>
</svg>
